<svg xmlns="http://www.w3.org/2000/svg" xmlns:xlink="http://www.w3.org/1999/xlink" width="274" zoomAndPan="magnify" viewBox="0 0 205.5 231" height="308" preserveAspectRatio="xMidYMid meet" version="1.0"><defs><g/><clipPath id="f72d0e1fcf"><path d="M 5 0.28125 L 200 0.28125 L 200 128 L 5 128 Z M 5 0.28125 " clip-rule="nonzero"/></clipPath><clipPath id="b30c134d06"><path d="M 39 0.28125 L 167 0.28125 L 167 48 L 39 48 Z M 39 0.28125 " clip-rule="nonzero"/></clipPath><clipPath id="e178b7dde5"><path d="M 51 121 L 154 121 L 154 229.972656 L 51 229.972656 Z M 51 121 " clip-rule="nonzero"/></clipPath></defs><g fill="#374850" fill-opacity="1"><g transform="translate(97.394043, 89.286386)"><g><path d="M 1.328125 -0.921875 C 1.328125 -1.304688 1.414062 -1.597656 1.59375 -1.796875 C 1.769531 -2.003906 2.023438 -2.109375 2.359375 -2.109375 C 2.691406 -2.109375 2.953125 -2.003906 3.140625 -1.796875 C 3.328125 -1.597656 3.421875 -1.304688 3.421875 -0.921875 C 3.421875 -0.546875 3.320312 -0.253906 3.125 -0.046875 C 2.9375 0.148438 2.679688 0.25 2.359375 0.25 C 2.054688 0.25 1.804688 0.160156 1.609375 -0.015625 C 1.421875 -0.203125 1.328125 -0.503906 1.328125 -0.921875 Z M 1.328125 -0.921875 "/></g></g></g><g clip-path="url(#f72d0e1fcf)"><path fill="#374850" d="M 165.964844 0.296875 L 38.300781 0.296875 C 19.417969 0.296875 0 32.214844 6.382812 44.980469 C 16.671875 65.566406 82.984375 127.960938 82.984375 127.960938 L 121.28125 127.960938 C 121.28125 127.960938 185.113281 64.128906 197.882812 44.980469 C 204.265625 32.214844 182.988281 0.296875 165.964844 0.296875 Z M 140.433594 51.363281 L 102.132812 89.664062 L 63.832031 51.363281 C 60.4375 47.96875 58.453125 45.496094 58.125 43.664062 C 57.226562 38.617188 69.335938 38.597656 102.132812 38.597656 C 146.277344 38.597656 149.855469 40.992188 143.828125 47.828125 C 142.890625 48.898438 141.726562 50.066406 140.433594 51.363281 Z M 140.433594 51.363281 " fill-opacity="1" fill-rule="nonzero"/></g><g clip-path="url(#b30c134d06)"><path fill="#506974" d="M 58.125 43.664062 C 57.226562 38.617188 69.335938 38.597656 102.132812 38.597656 C 146.277344 38.597656 149.855469 40.992188 143.828125 47.828125 C 177.875 12.328125 167.210938 0.296875 153.199219 0.296875 L 51.066406 0.296875 C 28.21875 0.296875 44.617188 26.449219 58.125 43.664062 Z M 58.125 43.664062 " fill-opacity="1" fill-rule="nonzero"/></g><g clip-path="url(#e178b7dde5)"><path fill="#ffac33" d="M 127.039062 134.472656 C 127.421875 133.433594 127.664062 132.324219 127.664062 131.152344 C 127.664062 125.867188 123.375 121.578125 118.089844 121.578125 L 86.175781 121.578125 C 80.882812 121.578125 76.597656 125.867188 76.597656 131.152344 C 76.597656 132.324219 76.84375 133.433594 77.226562 134.472656 C 61.625 143.210938 51.066406 159.878906 51.066406 179.027344 C 51.066406 207.230469 73.925781 230.09375 102.132812 230.09375 C 130.332031 230.09375 153.199219 207.230469 153.199219 179.027344 C 153.199219 159.878906 142.640625 143.210938 127.039062 134.472656 Z M 127.039062 134.472656 " fill-opacity="1" fill-rule="nonzero"/></g><path fill="#9e5200" d="M 108.847656 146.792969 L 100.605469 146.792969 L 87.539062 157 C 87.273438 157.269531 87.003906 157.984375 87.003906 158.339844 L 87.003906 163.984375 C 87.003906 164.878906 87.71875 165.679688 88.613281 165.679688 L 97.203125 165.679688 L 97.203125 205.964844 C 97.203125 206.867188 97.917969 207.671875 98.910156 207.671875 L 108.847656 207.671875 C 109.742188 207.671875 110.457031 206.867188 110.457031 205.964844 L 110.457031 148.496094 C 110.457031 147.597656 109.734375 146.792969 108.847656 146.792969 Z M 108.847656 146.792969 " fill-opacity="1" fill-rule="nonzero"/></svg>