<svg xmlns="http://www.w3.org/2000/svg" xmlns:xlink="http://www.w3.org/1999/xlink" width="274" zoomAndPan="magnify" viewBox="0 0 205.5 231" height="308" preserveAspectRatio="xMidYMid meet" version="1.0"><defs><g/><clipPath id="d3ce3ef8dc"><path d="M 5 0.28125 L 200 0.28125 L 200 128 L 5 128 Z M 5 0.28125 " clip-rule="nonzero"/></clipPath><clipPath id="5266171593"><path d="M 40 0.28125 L 168 0.28125 L 168 48 L 40 48 Z M 40 0.28125 " clip-rule="nonzero"/></clipPath><clipPath id="2d9840c448"><path d="M 51 121 L 154 121 L 154 229.972656 L 51 229.972656 Z M 51 121 " clip-rule="nonzero"/></clipPath></defs><g fill="#374850" fill-opacity="1"><g transform="translate(160.989308, 65.344644)"><g><path d="M 1.328125 -0.921875 C 1.328125 -1.304688 1.414062 -1.597656 1.59375 -1.796875 C 1.769531 -2.003906 2.023438 -2.109375 2.359375 -2.109375 C 2.691406 -2.109375 2.953125 -2.003906 3.140625 -1.796875 C 3.328125 -1.597656 3.421875 -1.304688 3.421875 -0.921875 C 3.421875 -0.546875 3.320312 -0.253906 3.125 -0.046875 C 2.9375 0.148438 2.679688 0.25 2.359375 0.25 C 2.054688 0.25 1.804688 0.160156 1.609375 -0.015625 C 1.421875 -0.203125 1.328125 -0.503906 1.328125 -0.921875 Z M 1.328125 -0.921875 "/></g></g></g><g clip-path="url(#d3ce3ef8dc)"><path fill="#506974" d="M 166.660156 0.296875 L 38.996094 0.296875 C 20.113281 0.296875 0.695312 32.214844 7.078125 44.980469 C 17.367188 65.566406 83.679688 127.960938 83.679688 127.960938 L 121.976562 127.960938 C 121.976562 127.960938 185.8125 64.128906 198.578125 44.980469 C 204.960938 32.214844 183.683594 0.296875 166.660156 0.296875 Z M 141.128906 51.363281 L 102.828125 89.664062 L 64.527344 51.363281 C 61.132812 47.96875 59.148438 45.496094 58.820312 43.664062 C 57.921875 38.617188 70.03125 38.597656 102.828125 38.597656 C 146.976562 38.597656 150.550781 40.992188 144.523438 47.828125 C 143.585938 48.898438 142.421875 50.066406 141.128906 51.363281 Z M 141.128906 51.363281 " fill-opacity="1" fill-rule="nonzero"/></g><g clip-path="url(#5266171593)"><path fill="#374850" d="M 58.820312 43.664062 C 57.921875 38.617188 70.03125 38.597656 102.828125 38.597656 C 146.976562 38.597656 150.550781 40.992188 144.523438 47.828125 C 178.570312 12.328125 167.90625 0.296875 153.894531 0.296875 L 51.761719 0.296875 C 28.917969 0.296875 45.316406 26.449219 58.820312 43.664062 Z M 58.820312 43.664062 " fill-opacity="1" fill-rule="nonzero"/></g><g clip-path="url(#2d9840c448)"><path fill="#ccd6dd" d="M 127.734375 134.472656 C 128.117188 133.433594 128.359375 132.324219 128.359375 131.152344 C 128.359375 125.867188 124.070312 121.578125 118.785156 121.578125 L 86.871094 121.578125 C 81.578125 121.578125 77.296875 125.867188 77.296875 131.152344 C 77.296875 132.324219 77.539062 133.433594 77.921875 134.472656 C 62.320312 143.210938 51.761719 159.878906 51.761719 179.027344 C 51.761719 207.230469 74.621094 230.09375 102.828125 230.09375 C 131.03125 230.09375 153.894531 207.230469 153.894531 179.027344 C 153.894531 159.878906 143.335938 143.210938 127.734375 134.472656 Z M 127.734375 134.472656 " fill-opacity="1" fill-rule="nonzero"/></g><path fill="#627077" d="M 121.976562 196.199219 L 105.019531 196.199219 C 109.222656 190.289062 116.566406 180.714844 119.425781 175.605469 C 121.574219 171.402344 122.917969 168.71875 122.917969 163.976562 C 122.917969 154.039062 115.398438 145.894531 102.597656 145.894531 C 91.945312 145.894531 84.691406 154.664062 84.691406 154.664062 C 84.066406 155.378906 84.15625 156.449219 84.78125 156.992188 L 90.242188 162.539062 C 90.957031 163.253906 92.027344 163.253906 92.75 162.539062 C 94.445312 160.65625 97.761719 158.066406 101.429688 158.066406 C 106.441406 158.066406 109.3125 161.109375 109.3125 164.511719 C 109.3125 167.023438 108.144531 169.523438 106.984375 171.3125 C 101.699219 179.367188 88.453125 197.363281 83.261719 204.160156 L 83.261719 205.945312 C 83.261719 206.847656 83.976562 207.652344 84.960938 207.652344 L 121.976562 207.652344 C 122.871094 207.652344 123.683594 206.847656 123.683594 205.945312 L 123.683594 197.890625 C 123.683594 197.003906 122.871094 196.199219 121.976562 196.199219 Z M 121.976562 196.199219 " fill-opacity="1" fill-rule="nonzero"/></svg>