<svg xmlns="http://www.w3.org/2000/svg" xmlns:xlink="http://www.w3.org/1999/xlink" width="274" zoomAndPan="magnify" viewBox="0 0 205.5 231" height="308" preserveAspectRatio="xMidYMid meet" version="1.0"><defs><g/><clipPath id="d5db876173"><path d="M 5 0.28125 L 200 0.28125 L 200 128 L 5 128 Z M 5 0.28125 " clip-rule="nonzero"/></clipPath><clipPath id="092213f1d3"><path d="M 39 0.28125 L 167 0.28125 L 167 48 L 39 48 Z M 39 0.28125 " clip-rule="nonzero"/></clipPath><clipPath id="15fe114edc"><path d="M 51 121 L 154 121 L 154 229.972656 L 51 229.972656 Z M 51 121 " clip-rule="nonzero"/></clipPath></defs><g fill="#374850" fill-opacity="1"><g transform="translate(160.587103, 53.37377)"><g><path d="M 1.328125 -0.921875 C 1.328125 -1.304688 1.414062 -1.597656 1.59375 -1.796875 C 1.769531 -2.003906 2.023438 -2.109375 2.359375 -2.109375 C 2.691406 -2.109375 2.953125 -2.003906 3.140625 -1.796875 C 3.328125 -1.597656 3.421875 -1.304688 3.421875 -0.921875 C 3.421875 -0.546875 3.320312 -0.253906 3.125 -0.046875 C 2.9375 0.148438 2.679688 0.25 2.359375 0.25 C 2.054688 0.25 1.804688 0.160156 1.609375 -0.015625 C 1.421875 -0.203125 1.328125 -0.503906 1.328125 -0.921875 Z M 1.328125 -0.921875 "/></g></g></g><g clip-path="url(#d5db876173)"><path fill="#374850" d="M 166.257812 0.296875 L 38.59375 0.296875 C 19.710938 0.296875 0.292969 32.214844 6.675781 44.980469 C 16.964844 65.566406 83.277344 127.960938 83.277344 127.960938 L 121.574219 127.960938 C 121.574219 127.960938 185.410156 64.128906 198.175781 44.980469 C 204.558594 32.214844 183.28125 0.296875 166.257812 0.296875 Z M 140.726562 51.363281 L 102.425781 89.664062 L 64.125 51.363281 C 60.730469 47.96875 58.746094 45.496094 58.417969 43.664062 C 57.519531 38.617188 69.628906 38.597656 102.425781 38.597656 C 146.574219 38.597656 150.148438 40.992188 144.121094 47.828125 C 143.183594 48.898438 142.019531 50.066406 140.726562 51.363281 Z M 140.726562 51.363281 " fill-opacity="1" fill-rule="nonzero"/></g><g clip-path="url(#092213f1d3)"><path fill="#506974" d="M 58.417969 43.664062 C 57.519531 38.617188 69.628906 38.597656 102.425781 38.597656 C 146.574219 38.597656 150.148438 40.992188 144.121094 47.828125 C 178.167969 12.328125 167.503906 0.296875 153.492188 0.296875 L 51.359375 0.296875 C 28.515625 0.296875 44.914062 26.449219 58.417969 43.664062 Z M 58.417969 43.664062 " fill-opacity="1" fill-rule="nonzero"/></g><g clip-path="url(#15fe114edc)"><path fill="#ff8a3b" d="M 127.332031 134.472656 C 127.714844 133.433594 127.960938 132.324219 127.960938 131.152344 C 127.960938 125.867188 123.667969 121.578125 118.382812 121.578125 L 86.46875 121.578125 C 81.175781 121.578125 76.894531 125.867188 76.894531 131.152344 C 76.894531 132.324219 77.136719 133.433594 77.519531 134.472656 C 61.917969 143.210938 51.359375 159.878906 51.359375 179.027344 C 51.359375 207.230469 74.21875 230.09375 102.425781 230.09375 C 130.628906 230.09375 153.492188 207.230469 153.492188 179.027344 C 153.492188 159.878906 142.933594 143.210938 127.332031 134.472656 Z M 127.332031 134.472656 " fill-opacity="1" fill-rule="nonzero"/></g><path fill="#7c4119" d="M 83.84375 198.261719 L 89.488281 192.617188 C 90.113281 191.988281 91.007812 191.902344 91.726562 192.441406 C 91.726562 192.441406 97.273438 196.5625 101.570312 196.5625 C 105.425781 196.5625 109.363281 193.339844 109.363281 189.402344 C 109.363281 185.464844 105.332031 182.148438 98.710938 182.148438 L 95.652344 182.148438 C 94.757812 182.148438 93.957031 181.347656 93.957031 180.445312 L 93.957031 173.015625 C 93.957031 172.03125 94.757812 171.3125 95.652344 171.3125 L 98.710938 171.3125 C 104.972656 171.3125 108.285156 168.265625 108.285156 164.425781 C 108.285156 160.566406 104.972656 157.707031 101.125 157.707031 C 97.183594 157.707031 94.675781 159.765625 93.335938 161.289062 C 92.703125 162.003906 91.632812 162.003906 90.921875 161.386719 L 85.464844 156.011719 C 84.746094 155.378906 84.832031 154.304688 85.464844 153.6875 C 85.464844 153.6875 92.800781 145.808594 102.558594 145.808594 C 112.945312 145.808594 121.894531 152.167969 121.894531 162.191406 C 121.894531 169.078125 116.707031 174.183594 112.675781 176.0625 L 112.675781 176.335938 C 116.882812 178.121094 123.503906 183.667969 123.503906 191.367188 C 123.503906 201.121094 115 208.46875 102.644531 208.46875 C 91.371094 208.46875 85.636719 202.914062 83.761719 200.503906 C 83.210938 199.871094 83.308594 198.878906 83.84375 198.261719 Z M 83.84375 198.261719 " fill-opacity="1" fill-rule="nonzero"/></svg>