<svg xmlns="http://www.w3.org/2000/svg" xmlns:xlink="http://www.w3.org/1999/xlink" width="308" zoomAndPan="magnify" viewBox="0 0 230.87999 219" height="292" preserveAspectRatio="xMidYMid meet" version="1.0"><defs><g/></defs><path fill="#fdc55b" d="M 119.996094 4.570312 L 145.761719 71.464844 C 146.449219 73.246094 148.105469 74.472656 150.015625 74.605469 L 224.140625 79.730469 C 228.59375 80.039062 230.371094 85.632812 226.910156 88.449219 L 166.660156 137.480469 C 165.09375 138.753906 164.464844 140.847656 165.070312 142.769531 L 186.375 210.464844 C 187.734375 214.789062 183.011719 218.496094 179.128906 216.144531 L 117.953125 179.148438 C 116.386719 178.203125 114.421875 178.203125 112.855469 179.148438 L 51.675781 216.144531 C 47.792969 218.496094 43.070312 214.789062 44.429688 210.464844 L 65.734375 142.769531 C 66.339844 140.847656 65.710938 138.753906 64.148438 137.480469 L 3.894531 88.449219 C 0.433594 85.632812 2.210938 80.039062 6.667969 79.730469 L 80.789062 74.605469 C 82.699219 74.472656 84.359375 73.246094 85.042969 71.464844 L 110.808594 4.570312 C 112.425781 0.367188 118.378906 0.367188 119.996094 4.570312 " fill-opacity="1" fill-rule="nonzero"/><g fill="#fdc55b" fill-opacity="1"><g transform="translate(83.537827, 171.417818)"><g><path d="M 1.03125 -1.25 C 1.03125 -1.75 1.160156 -2.125 1.421875 -2.375 C 1.679688 -2.625 2.066406 -2.75 2.578125 -2.75 C 3.054688 -2.75 3.425781 -2.617188 3.6875 -2.359375 C 3.957031 -2.097656 4.09375 -1.726562 4.09375 -1.25 C 4.09375 -0.789062 3.957031 -0.425781 3.6875 -0.15625 C 3.425781 0.101562 3.054688 0.234375 2.578125 0.234375 C 2.078125 0.234375 1.691406 0.101562 1.421875 -0.15625 C 1.160156 -0.414062 1.03125 -0.78125 1.03125 -1.25 Z M 1.03125 -1.25 "/></g></g></g></svg>