<?xml version="1.0" encoding="utf-8"?>
<!-- Generator: Adobe Illustrator 16.0.0, SVG Export Plug-In . SVG Version: 6.00 Build 0)  -->
<!DOCTYPE svg PUBLIC "-//W3C//DTD SVG 1.1//EN" "http://www.w3.org/Graphics/SVG/1.1/DTD/svg11.dtd">
<svg version="1.1" xmlns="http://www.w3.org/2000/svg" xmlns:xlink="http://www.w3.org/1999/xlink" x="0px" y="0px" width="1000px"
	 height="192.055px" viewBox="0 0 1000 192.055" enable-background="new 0 0 1000 192.055" xml:space="preserve">
<symbol  id="Bush_Left" viewBox="-43.3 -24.308 86.601 48.615">
	<g>
		<g>
			<path fill="#00A651" d="M-33.888-3.511c8.299,8.895,13.237,21.557,13.237,21.557c-3.489-10.506-7.56-15.73-14.272-24.22
				L-33.888-3.511z"/>
			<path fill="#00A651" d="M-30.487,3.161c0.297,2.265,2.376,11.441,2.376,11.441l-2.153-5.593
				c-0.479-2.881,0.761-5.555,0.447-7.952L-30.487,3.161z"/>
			<path fill="#00A651" d="M-27.667,8.564c0.297,2.266,1.726,9.829,1.726,9.829l-0.53-3.791c0-2.44-0.212-5.744-0.526-8.142
				L-27.667,8.564z"/>
			<path fill="#00A651" d="M-24.188,13.377c0.216,1.381,3.051,6.613,3.051,6.613l-2.181-2.933c0-1.487-0.154-3.501-0.382-4.963
				L-24.188,13.377z"/>
			<path fill="#00A651" d="M-21.167,18.075c0.602,1.176,2.76,6.232,2.76,6.232l-1.281-3.51c-0.313-1.289-0.958-3.02-1.595-4.265
				L-21.167,18.075z"/>
			<path fill="#00A651" d="M-26.043,10.332c0.297,2.266,1.726,9.828,1.726,9.828l-1.161-4.837c0-2.441,0.42-4.697,0.105-7.095
				L-26.043,10.332z"/>
			<path fill="#00A651" d="M-24.522,3.487c1.421,0.866,6.495,3.396,6.495,3.396l-3.35-2.195c-1.774-1.165-5.323-0.627-6.827-1.544
				L-24.522,3.487z"/>
			<path fill="#00A651" d="M-21.855,6.884c1.898,1.261,6.128,5.077,6.128,5.077l-3.163-2.14c-2.187-1.069-5.052-2.709-7.062-4.043
				L-21.855,6.884z"/>
			<path fill="#00A651" d="M-21.837,13.088c1.036,0.934,3.865,6.169,3.865,6.169l-1.263-3.432c-1.244-0.811-2.842-2.037-3.939-3.025
				L-21.837,13.088z"/>
			<path fill="#00A651" d="M-23.271,9.473c1.577,1.009,5.962,5.851,5.962,5.851l-2.632-3.877c-1.816-0.857-3.47-1.16-5.14-2.229
				L-23.271,9.473z"/>
			<path fill="#00A651" d="M-32.966,0.366c0.297,2.265,1.6,12.736,1.6,12.736l-1.376-6.888c-0.479-2.881,0.762-5.555,0.447-7.952
				L-32.966,0.366z"/>
			<path fill="#00A651" d="M-34.966-1.264c0.297,2.266,1.599,12.736,1.599,12.736l-1.376-6.887
				c-0.479-2.882,0.761-5.556,0.447-7.953L-34.966-1.264z"/>
			<path fill="#00A651" d="M-29.402-0.557c1.549,0.605,10.179,4.284,10.179,4.284l-4.82-3.121c-1.949-0.838-5.362-0.453-7.002-1.095
				L-29.402-0.557z"/>
			<path fill="#00A651" d="M-29.97-3.318c1.727,0.743,9.728,4.106,9.728,4.106l-5.131-2.746c-2.171-1.049-4.612-0.291-6.44-1.078
				L-29.97-3.318z"/>
		</g>
		<g>
			<path fill="#00A651" d="M-41.108-9.821c17.332-2.827,35.766-10.603,35.766-10.603C-18.811-13.763-28.099-11.68-43.3-8.345
				L-41.108-9.821z"/>
			<path fill="#00A651" d="M-29.852-13.562c2.399-1.676,13.091-8.003,13.091-8.003l-7.499,3.39
				c-3.164,2.079-4.231,4.895-6.771,6.668L-29.852-13.562z"/>
			<path fill="#00A651" d="M-21.787-16.448c2.399-1.676,10.895-7.041,10.895-7.041l-4.051,2.787
				c-2.23,1.975-5.483,4.535-8.022,6.309L-21.787-16.448z"/>
			<path fill="#00A651" d="M-13.531-18.509c1.501-1.004,9.426-3.744,9.426-3.744l-5.098,1.225c-1.36,1.204-3.371,2.751-4.96,3.813
				L-13.531-18.509z"/>
			<path fill="#00A651" d="M-5.888-20.719c1.742-0.635,8.756-3.589,8.756-3.589l-4.628,2.165c-1.525,0.878-3.821,1.938-5.666,2.609
				L-5.888-20.719z"/>
			<path fill="#00A651" d="M-18.371-17.022c2.399-1.676,10.895-7.041,10.895-7.041l-5.708,3.301
				c-2.23,1.975-3.826,4.021-6.366,5.795L-18.371-17.022z"/>
			<path fill="#00A651" d="M-22.937-10.686c2.367,0.047,10.307,0.671,10.307,0.671l-5.722,0.014
				c-3.032,0.008-6.476-2.295-8.982-2.345L-22.937-10.686z"/>
			<path fill="#00A651" d="M-16.876-12.029c3.258-0.021,11.436-0.882,11.436-0.882l-5.462,0.066
				c-3.403-0.285-8.078-0.468-11.526-0.445L-16.876-12.029z"/>
			<path fill="#00A651" d="M-11.188-17.037c2.003-0.21,9.925-2.956,9.925-2.956L-5.8-17.882c-2.12,0.001-5.014,0.151-7.134,0.374
				L-11.188-17.037z"/>
			<path fill="#00A651" d="M-16.082-14.868c2.671,0.014,11.958-1.595,11.958-1.595l-6.461,1.751
				c-2.797-0.263-4.908-0.889-7.736-0.902L-16.082-14.868z"/>
			<path fill="#00A651" d="M-35.155-12.604c2.399-1.677,13.411-9.46,13.411-9.46l-7.819,4.846c-3.163,2.079-4.231,4.895-6.771,6.668
				L-35.155-12.604z"/>
			<path fill="#00A651" d="M-38.862-12.34c2.399-1.676,13.412-9.46,13.412-9.46l-7.819,4.847c-3.164,2.079-4.231,4.894-6.771,6.668
				L-38.862-12.34z"/>
			<path fill="#00A651" d="M-32.045-9.983c2.271,0.326,15.205,1.893,15.205,1.893l-8.198-0.013c-2.927-0.348-6.361-2.455-8.766-2.8
				L-32.045-9.983z"/>
			<path fill="#00A651" d="M-35.199-8.048C-32.604-7.74-20.658-6.25-20.658-6.25l-8.2-0.479c-3.366-0.294-5.381-2.191-8.127-2.518
				L-35.199-8.048z"/>
		</g>
		<g>
			<path fill="#00A651" d="M-20.024-4.793c13.512-1.991,27.731-7.055,27.731-7.055c-10.5,4.69-17.742,6.158-29.593,8.506
				L-20.024-4.793z"/>
			<path fill="#00A651" d="M-11.401-7.015c1.871-1.181,10.206-5.637,10.206-5.637l-5.846,2.388
				c-2.466,1.464-3.299,3.446-5.279,4.695L-11.401-7.015z"/>
			<path fill="#00A651" d="M-5.113-9.048c1.87-1.18,8.494-4.958,8.494-4.958l-3.158,1.963c-1.739,1.39-4.275,3.192-6.255,4.442
				L-5.113-9.048z"/>
			<path fill="#00A651" d="M1.323-10.499c1.17-0.707,7.349-2.637,7.349-2.637l-3.975,0.862c-1.06,0.848-2.627,1.938-3.867,2.686
				L1.323-10.499z"/>
			<path fill="#00A651" d="M7.281-12.056c1.358-0.447,6.827-2.527,6.827-2.527L10.5-13.059c-1.189,0.618-2.979,1.365-4.417,1.838
				L7.281-12.056z"/>
			<path fill="#00A651" d="M-2.451-9.452c1.871-1.181,8.494-4.959,8.494-4.959l-4.45,2.325c-1.739,1.391-2.983,2.831-4.963,4.08
				L-2.451-9.452z"/>
			<path fill="#00A651" d="M-6.011-4.99c1.846,0.033,8.036,0.473,8.036,0.473l-4.46,0.01c-2.364,0.006-5.049-1.616-7.002-1.651
				L-6.011-4.99z"/>
			<path fill="#00A651" d="M-1.285-5.937c2.54-0.015,8.916-0.62,8.916-0.62L3.372-6.511c-2.653-0.2-6.298-0.329-8.986-0.313
				L-1.285-5.937z"/>
			<path fill="#00A651" d="M3.15-9.463c1.562-0.148,7.737-2.082,7.737-2.082L7.35-10.058c-1.653,0.001-3.909,0.106-5.562,0.263
				L3.15-9.463z"/>
			<path fill="#00A651" d="M-0.666-7.936c2.083,0.01,9.323-1.123,9.323-1.123L3.62-7.825c-2.18-0.186-3.827-0.626-6.031-0.636
				L-0.666-7.936z"/>
			<path fill="#00A651" d="M-15.536-6.342c1.871-1.18,10.456-6.661,10.456-6.661l-6.096,3.412c-2.466,1.464-3.299,3.446-5.278,4.696
				L-15.536-6.342z"/>
			<path fill="#00A651" d="M-18.426-6.154c1.87-1.181,10.456-6.662,10.456-6.662l-6.096,3.413c-2.466,1.464-3.299,3.446-5.279,4.695
				L-18.426-6.154z"/>
			<path fill="#00A651" d="M-13.112-4.495c1.771,0.229,11.854,1.332,11.854,1.332l-6.392-0.009
				c-2.282-0.245-4.959-1.729-6.834-1.972L-13.112-4.495z"/>
			<path fill="#00A651" d="M-15.57-3.133c2.022,0.217,11.336,1.267,11.336,1.267l-6.393-0.338c-2.625-0.207-4.195-1.543-6.336-1.772
				L-15.57-3.133z"/>
		</g>
		<g>
			<path fill="#00A651" d="M1.652-2.056c12.235-1.712,25.111-6.067,25.111-6.067C17.255-4.089,10.698-2.826-0.033-0.807L1.652-2.056
				z"/>
			<path fill="#00A651" d="M9.46-3.967c1.694-1.015,9.241-4.848,9.241-4.848l-5.293,2.054c-2.233,1.259-2.987,2.964-4.78,4.039
				L9.46-3.967z"/>
			<path fill="#00A651" d="M15.154-5.715c1.694-1.016,7.691-4.266,7.691-4.266l-2.859,1.688c-1.575,1.196-3.871,2.747-5.664,3.821
				L15.154-5.715z"/>
			<path fill="#00A651" d="M20.982-6.964c1.06-0.607,6.654-2.268,6.654-2.268L24.038-8.49c-0.96,0.729-2.379,1.667-3.501,2.311
				L20.982-6.964z"/>
			<path fill="#00A651" d="M26.378-8.303c1.23-0.385,6.182-2.174,6.182-2.174l-3.268,1.312c-1.076,0.532-2.697,1.174-4,1.581
				L26.378-8.303z"/>
			<path fill="#00A651" d="M17.565-6.063c1.694-1.015,7.691-4.266,7.691-4.266l-4.029,2c-1.575,1.196-2.701,2.436-4.494,3.511
				L17.565-6.063z"/>
			<path fill="#00A651" d="M14.342-2.225c1.671,0.028,7.276,0.406,7.276,0.406L17.579-1.81C15.438-1.805,13.007-3.2,11.238-3.23
				L14.342-2.225z"/>
			<path fill="#00A651" d="M18.621-3.038c2.3-0.013,8.073-0.534,8.073-0.534l-3.856,0.04c-2.402-0.173-5.703-0.283-8.137-0.271
				L18.621-3.038z"/>
			<path fill="#00A651" d="M22.637-6.072c1.414-0.127,7.006-1.791,7.006-1.791L26.44-6.584c-1.497,0.001-3.54,0.092-5.036,0.227
				L22.637-6.072z"/>
			<path fill="#00A651" d="M19.182-4.758c1.886,0.008,8.442-0.966,8.442-0.966l-4.562,1.061c-1.975-0.159-3.465-0.539-5.461-0.547
				L19.182-4.758z"/>
			<path fill="#00A651" d="M5.717-3.387c1.694-1.016,9.468-5.731,9.468-5.731l-5.52,2.937c-2.233,1.259-2.987,2.964-4.78,4.039
				L5.717-3.387z"/>
			<path fill="#00A651" d="M3.1-3.227c1.694-1.015,9.468-5.73,9.468-5.73l-5.52,2.936c-2.233,1.26-2.987,2.965-4.78,4.04L3.1-3.227z
				"/>
			<path fill="#00A651" d="M7.912-1.799c1.604,0.197,10.733,1.146,10.733,1.146L12.858-0.66c-2.066-0.211-4.49-1.487-6.188-1.696
				L7.912-1.799z"/>
			<path fill="#00A651" d="M5.686-0.627C7.518-0.44,15.951,0.462,15.951,0.462l-5.789-0.29C7.786-0.006,6.364-1.155,4.425-1.353
				L5.686-0.627z"/>
		</g>
		<g>
			<path fill="#00A651" d="M14.001,2.836c11.079-1.473,22.738-5.22,22.738-5.22C28.13,1.087,22.192,2.173,12.475,3.91L14.001,2.836z
				"/>
			<path fill="#00A651" d="M21.072,1.192c1.534-0.873,8.368-4.171,8.368-4.171l-4.793,1.767c-2.022,1.083-2.705,2.551-4.328,3.475
				L21.072,1.192z"/>
			<path fill="#00A651" d="M26.228-0.312c1.534-0.874,6.964-3.67,6.964-3.67l-2.589,1.453c-1.426,1.028-3.505,2.362-5.128,3.287
				L26.228-0.312z"/>
			<path fill="#00A651" d="M31.505-1.386c0.96-0.523,6.026-1.951,6.026-1.951l-3.259,0.638c-0.869,0.628-2.154,1.434-3.17,1.987
				L31.505-1.386z"/>
			<path fill="#00A651" d="M36.391-2.538c1.114-0.331,5.598-1.87,5.598-1.87l-2.959,1.129c-0.975,0.457-2.442,1.009-3.622,1.359
				L36.391-2.538z"/>
			<path fill="#00A651" d="M28.411-0.611c1.534-0.873,6.964-3.669,6.964-3.669l-3.649,1.72c-1.426,1.029-2.446,2.095-4.069,3.02
				L28.411-0.611z"/>
			<path fill="#00A651" d="M25.492,2.69c1.513,0.024,6.589,0.35,6.589,0.35l-3.658,0.007c-1.938,0.005-4.14-1.195-5.742-1.222
				L25.492,2.69z"/>
			<path fill="#00A651" d="M29.367,1.99c2.083-0.011,7.31-0.459,7.31-0.459l-3.492,0.034c-2.175-0.148-5.164-0.243-7.368-0.232
				L29.367,1.99z"/>
			<path fill="#00A651" d="M33.003-0.619c1.28-0.109,6.344-1.54,6.344-1.54l-2.9,1.1c-1.355,0.001-3.205,0.079-4.56,0.195
				L33.003-0.619z"/>
			<path fill="#00A651" d="M29.875,0.511c1.708,0.008,7.645-0.83,7.645-0.83l-4.13,0.912c-1.788-0.137-3.138-0.463-4.945-0.471
				L29.875,0.511z"/>
			<path fill="#00A651" d="M17.682,1.69c1.534-0.873,8.573-4.93,8.573-4.93l-4.999,2.525c-2.022,1.084-2.705,2.551-4.328,3.475
				L17.682,1.69z"/>
			<path fill="#00A651" d="M15.313,1.829c1.533-0.873,8.573-4.93,8.573-4.93l-4.999,2.525c-2.022,1.083-2.705,2.55-4.328,3.475
				L15.313,1.829z"/>
			<path fill="#00A651" d="M19.669,3.057c1.452,0.17,9.72,0.986,9.72,0.986l-5.241-0.007c-1.871-0.181-4.066-1.279-5.604-1.459
				L19.669,3.057z"/>
			<path fill="#00A651" d="M17.654,4.065c1.658,0.16,9.295,0.937,9.295,0.937l-5.242-0.249C19.556,4.6,18.268,3.61,16.512,3.44
				L17.654,4.065z"/>
		</g>
		<g>
			<path fill="#00A651" d="M-16.823,0.146C-9.209,6.411-2.933,16.13-2.933,16.13C-7.012,7.951-10.858,4.172-17.184-1.957
				L-16.823,0.146z"/>
			<path fill="#00A651" d="M-12.52,5.146c0.525,1.819,3.334,9.083,3.334,9.083l-2.402-4.317c-0.747-2.303-0.128-4.646-0.684-6.572
				L-12.52,5.146z"/>
			<path fill="#00A651" d="M-9.624,9.226c0.525,1.82,2.619,7.842,2.619,7.842l-0.904-3.041c-0.317-2.001-0.91-4.681-1.466-6.607
				L-9.624,9.226z"/>
			<path fill="#00A651" d="M-6.292,12.74c0.347,1.105,3.232,5.044,3.232,5.044l-2.078-2.135c-0.193-1.22-0.574-2.851-0.942-4.021
				L-6.292,12.74z"/>
			<path fill="#00A651" d="M-3.331,16.218c0.621,0.89,2.957,4.768,2.957,4.768l-1.453-2.719c-0.411-1.018-1.138-2.355-1.795-3.298
				L-3.331,16.218z"/>
			<path fill="#00A651" d="M-8.131,10.474c0.525,1.819,2.619,7.841,2.619,7.841l-1.532-3.82c-0.317-2-0.283-3.9-0.839-5.827
				L-8.131,10.474z"/>
			<path fill="#00A651" d="M-7.835,4.678C-6.617,5.212-2.339,6.66-2.339,6.66l-2.892-1.387c-1.532-0.735-4.224,0.143-5.514-0.423
				L-7.835,4.678z"/>
			<path fill="#00A651" d="M-5.318,7.132c1.641,0.8,5.428,3.405,5.428,3.405l-2.739-1.363C-4.47,8.566-6.913,7.576-8.65,6.73
				L-5.318,7.132z"/>
			<path fill="#00A651" d="M-4.499,12.213c0.928,0.638,3.809,4.58,3.809,4.58l-1.429-2.657c-1.073-0.511-2.477-1.318-3.459-1.994
				L-4.499,12.213z"/>
			<path fill="#00A651" d="M-6.085,9.428c1.358,0.633,5.4,4.06,5.4,4.06l-2.551-2.853c-1.525-0.479-2.852-0.522-4.29-1.192
				L-6.085,9.428z"/>
			<path fill="#00A651" d="M-14.812,3.16c0.525,1.82,2.897,10.24,2.897,10.24l-1.965-5.475c-0.746-2.302-0.128-4.646-0.684-6.572
				L-14.812,3.16z"/>
			<path fill="#00A651" d="M-16.581,2.071c0.525,1.82,2.898,10.24,2.898,10.24l-1.965-5.475c-0.747-2.302-0.128-4.646-0.685-6.572
				L-16.581,2.071z"/>
			<path fill="#00A651" d="M-12.158,1.965c1.284,0.306,8.479,2.256,8.479,2.256l-4.157-1.964c-1.625-0.445-4.232,0.29-5.592-0.033
				L-12.158,1.965z"/>
			<path fill="#00A651" d="M-12.959-0.229c1.441,0.396,8.104,2.166,8.104,2.166l-4.35-1.617c-1.826-0.593-3.627,0.329-5.152-0.09
				L-12.959-0.229z"/>
		</g>
		<g>
			<path fill="#00A651" d="M-1.735,1.377c5.016,5.233,8.85,13.008,8.85,13.008C4.747,7.917,2.253,4.807-1.853-0.243L-1.735,1.377z"
				/>
			<path fill="#00A651" d="M1.003,5.443c0.254,1.415,1.776,7.109,1.776,7.109l-1.427-3.43C0.972,7.327,1.569,5.584,1.3,4.086
				L1.003,5.443z"/>
			<path fill="#00A651" d="M2.798,8.724c0.254,1.415,1.348,6.121,1.348,6.121l-0.443-2.367C3.61,10.938,3.365,8.864,3.096,7.366
				L2.798,8.724z"/>
			<path fill="#00A651" d="M4.943,11.601c0.174,0.861,1.972,4.033,1.972,4.033l-1.341-1.751c-0.057-0.938-0.22-2.201-0.405-3.113
				L4.943,11.601z"/>
			<path fill="#00A651" d="M6.825,14.427c0.384,0.715,1.793,3.807,1.793,3.807l-0.856-2.156c-0.226-0.799-0.655-1.86-1.062-2.617
				L6.825,14.427z"/>
			<path fill="#00A651" d="M3.781,9.765c0.254,1.415,1.348,6.121,1.348,6.121L4.29,12.887c-0.093-1.539,0.057-2.981-0.212-4.479
				L3.781,9.765z"/>
			<path fill="#00A651" d="M4.377,5.378c0.834,0.481,3.79,1.847,3.79,1.847L6.195,5.992C5.151,5.339,3.172,5.839,2.289,5.329
				L4.377,5.378z"/>
			<path fill="#00A651" d="M6.01,7.399c1.118,0.709,3.647,2.924,3.647,2.924L7.793,9.117C6.52,8.542,4.843,7.639,3.659,6.888
				L6.01,7.399z"/>
			<path fill="#00A651" d="M6.257,11.312c0.62,0.542,2.414,3.716,2.414,3.716L7.828,12.92c-0.731-0.455-1.68-1.155-2.335-1.729
				L6.257,11.312z"/>
			<path fill="#00A651" d="M5.311,9.097c0.927,0.564,3.583,3.419,3.583,3.419l-1.631-2.326c-1.056-0.457-2-0.573-2.981-1.172
				L5.311,9.097z"/>
			<path fill="#00A651" d="M-0.5,3.793c0.254,1.416,1.388,7.961,1.388,7.961l-1.039-4.281c-0.38-1.796,0.217-3.539-0.052-5.037
				L-0.5,3.793z"/>
			<path fill="#00A651" d="M-1.69,2.856c0.254,1.415,1.388,7.961,1.388,7.961l-1.039-4.281c-0.38-1.796,0.217-3.539-0.052-5.037
				L-1.69,2.856z"/>
			<path fill="#00A651" d="M1.472,3.049c0.896,0.312,5.9,2.239,5.9,2.239L4.537,3.539c-1.13-0.44-3.039-0.042-3.988-0.372
				L1.472,3.049z"/>
			<path fill="#00A651" d="M1.047,1.333C2.048,1.724,6.685,3.48,6.685,3.48L3.689,1.981c-1.264-0.563-2.61,0.026-3.67-0.387
				L1.047,1.333z"/>
		</g>
		<g>
			<path fill="#00A651" d="M10.392,4.123c5.327,4.498,9.139,10.947,9.139,10.947c-2.24-5.313-4.853-7.954-9.162-12.247L10.392,4.123
				z"/>
			<path fill="#00A651" d="M13.217,7.543c0.191,1.146,1.526,5.786,1.526,5.786l-1.382-2.828c-0.307-1.457,0.489-2.809,0.287-4.021
				L13.217,7.543z"/>
			<path fill="#00A651" d="M15.027,10.275c0.19,1.146,1.108,4.971,1.108,4.971l-0.34-1.917c0-1.234-0.136-2.904-0.338-4.117
				L15.027,10.275z"/>
			<path fill="#00A651" d="M17.261,12.709c0.139,0.698,1.958,3.345,1.958,3.345l-1.399-1.483c0-0.752-0.099-1.771-0.246-2.51
				L17.261,12.709z"/>
			<path fill="#00A651" d="M19.2,15.085c0.386,0.595,1.772,3.151,1.772,3.151l-0.822-1.774c-0.201-0.652-0.615-1.526-1.024-2.156
				L19.2,15.085z"/>
			<path fill="#00A651" d="M16.07,11.17c0.19,1.145,1.108,4.97,1.108,4.97l-0.746-2.446c0-1.234,0.27-2.375,0.068-3.588L16.07,11.17
				z"/>
			<path fill="#00A651" d="M17.046,7.708c0.912,0.438,4.169,1.718,4.169,1.718l-2.15-1.11c-1.139-0.589-3.417-0.316-4.382-0.78
				L17.046,7.708z"/>
			<path fill="#00A651" d="M18.758,9.426c1.219,0.638,3.934,2.567,3.934,2.567l-2.03-1.082c-1.404-0.541-3.243-1.369-4.533-2.045
				L18.758,9.426z"/>
			<path fill="#00A651" d="M18.77,12.563c0.666,0.473,2.481,3.12,2.481,3.12l-0.811-1.735c-0.798-0.41-1.825-1.03-2.529-1.53
				L18.77,12.563z"/>
			<path fill="#00A651" d="M17.849,10.734c1.012,0.511,3.828,2.959,3.828,2.959l-1.689-1.961c-1.166-0.433-2.228-0.586-3.299-1.126
				L17.849,10.734z"/>
			<path fill="#00A651" d="M11.626,6.13c0.19,1.146,1.026,6.44,1.026,6.44l-0.883-3.482c-0.307-1.457,0.489-2.81,0.287-4.021
				L11.626,6.13z"/>
			<path fill="#00A651" d="M10.342,5.306c0.19,1.146,1.027,6.44,1.027,6.44l-0.884-3.482c-0.307-1.457,0.489-2.81,0.287-4.021
				L10.342,5.306z"/>
			<path fill="#00A651" d="M13.914,5.663c0.994,0.307,6.534,2.167,6.534,2.167l-3.094-1.579c-1.251-0.423-3.442-0.229-4.495-0.553
				L13.914,5.663z"/>
			<path fill="#00A651" d="M13.549,4.267c1.108,0.376,6.245,2.077,6.245,2.077L16.5,4.954c-1.394-0.53-2.96-0.146-4.134-0.545
				L13.549,4.267z"/>
		</g>
		<g>
			<path fill="#00A651" d="M22.362,7.215c9.256,2.037,17.473,6.526,17.473,6.526C34.255,9.674,29.5,8.267,21.691,6.004L22.362,7.215
				z"/>
			<path fill="#00A651" d="M27.781,9.267c0.817,0.997,4.87,4.805,4.87,4.805l-3.222-2.087c-1.125-1.242-0.74-2.838-1.605-3.893
				L27.781,9.267z"/>
			<path fill="#00A651" d="M31.521,11.089c0.817,0.997,3.916,4.211,3.916,4.211l-1.395-1.66c-0.609-1.158-1.613-2.67-2.478-3.726
				L31.521,11.089z"/>
			<path fill="#00A651" d="M35.671,12.457c0.528,0.599,4.237,2.336,4.237,2.336l-2.581-0.817c-0.372-0.707-1.004-1.622-1.563-2.256
				L35.671,12.457z"/>
			<path fill="#00A651" d="M39.405,13.892c0.804,0.4,3.896,2.231,3.896,2.231l-1.962-1.328c-0.587-0.53-1.566-1.181-2.417-1.604
				L39.405,13.892z"/>
			<path fill="#00A651" d="M33.338,11.5c0.817,0.997,3.916,4.211,3.916,4.211l-2.191-1.99c-0.609-1.159-0.816-2.34-1.681-3.396
				L33.338,11.5z"/>
			<path fill="#00A651" d="M32.921,7.851c1.421,0.037,6.354-0.098,6.354-0.098l-3.388-0.16c-1.795-0.086-4.669,1.104-6.174,1.064
				L32.921,7.851z"/>
			<path fill="#00A651" d="M36.029,8.761c1.925,0.099,6.463,0.797,6.463,0.797l-3.215-0.183c-2.121,0.067-4.959,0.044-6.997-0.061
				L36.029,8.761z"/>
			<path fill="#00A651" d="M37.593,11.701c1.112,0.17,4.817,1.91,4.817,1.91l-1.928-1.297c-1.256-0.057-2.918-0.218-4.095-0.398
				L37.593,11.701z"/>
			<path fill="#00A651" d="M35.475,10.362c1.589,0.064,6.515,1.207,6.515,1.207l-3.199-1.146c-1.753,0.071-3.232,0.362-4.914,0.295
				L35.475,10.362z"/>
			<path fill="#00A651" d="M24.982,8.593c0.817,0.997,4.534,5.624,4.534,5.624l-2.885-2.907c-1.125-1.241-0.741-2.837-1.605-3.892
				L24.982,8.593z"/>
			<path fill="#00A651" d="M22.879,8.346c0.817,0.997,4.534,5.624,4.534,5.624l-2.885-2.906c-1.125-1.242-0.741-2.838-1.605-3.893
				L22.879,8.346z"/>
			<path fill="#00A651" d="M27.773,7.216c1.465-0.12,9.7-0.646,9.7-0.646l-4.866-0.212c-1.861,0.115-4.66,1.196-6.21,1.324
				L27.773,7.216z"/>
			<path fill="#00A651" d="M26.603,6.055c1.649-0.102,9.272-0.611,9.272-0.611L30.84,5.49c-2.103,0.074-3.983,1.076-5.729,1.185
				L26.603,6.055z"/>
		</g>
	</g>
</symbol>
<g id="Hintergrund">
</g>
<g id="Hilfslinien">
</g>
<g id="Vordergrund">
	<g>
		<path d="M72.846,87.941c-17.164,1.278-39.113,4.465-38.934,10.477c0.185,6.288,16.365,18.37,37.606,26.238
			C72.505,111.789,72.752,98.147,72.846,87.941z M10.021,23.141c-5.651,0.169-9.917-2.299-10.02-5.751
			c-0.076-2.523,5.446-10.4,8.815-11.675c2.303-0.871,13.516-5.129,32.207-5.684c6.927-0.206,18.688,0.644,28.621,2.115
			c57.819,8.568,118.512,52.656,119.672,91.756c0.793,26.605-22.19,51.563-67.058,52.896c-11.818,0.35-22.816-1.104-32.818-3.732
			c-0.217,6.532,0.27,9.989-8.992,10.264c-5.667,0.169-7.873-9.008-8.707-16.472c-27.084-12.021-43.405-31.542-43.634-39.246
			c-0.34-11.474,20.522-21.044,44.924-24.831c0.344-9.5,1.951-33.686,6.965-33.834c2.015-0.062,6.189,4.614,7.764,11.765
			c1.434,6.498,1.583,18.345,1.598,20.456l1.842-0.066c34.237-1.018,54.755,9.686,55.134,22.366
			c0.291,9.826-8.41,14.859-12.975,14.995c-4.565,0.137-9.914-2.461-9.955-3.873c-0.08-2.706,9.741-3.34,9.611-7.713
			c-0.197-6.596-27.416-9.49-44.187-9.592c-0.026,5.684-0.1,12.546,0.039,17.158c0.132,4.43,0.408,15.877,0.543,25.427
			c7.608,1.61,15.445,2.479,23.13,2.25c18.081-0.536,59.382-7.129,58.463-38.157c-1.29-43.345-86.998-83.167-132.906-81.803
			c-18.081,0.536-28.932,2.477-28.879,4.25c0.035,1.183,8.804,1.639,8.875,3.979C18.164,22.729,13.111,23.049,10.021,23.141z"/>
		<path fill-rule="evenodd" clip-rule="evenodd" d="M202.412,70.513c2.952-0.088,7.188,7,7.32,11.43
			c0.132,4.43,1.192,27.584,1.501,34.257c0.312,6.671,0.091,13.061-0.344,16.019c-0.435,2.957-1.507,4.415-6.583,4.566
			c-5.076,0.151-7.438-2.872-7.87-7.343c-0.432-4.471-0.808-17.15-0.587-23.503c0.223-6.353,0.52-18.509,1.348-26.12
			C198.029,72.208,200.067,70.583,202.412,70.513z"/>
		<path fill-rule="evenodd" clip-rule="evenodd" d="M231.793,18.494c-0.84-2.104-3.669-6.355-13.754-6.056
			c-21.97,0.653-38.872,16.929-38.493,29.752c0.123,4.167,2.136,7.818,5.091,10.809c-0.77,2.096-0.849,3.496-0.826,4.296
			c0.068,2.228,3.419,8.109,5.993,8.033c2.179-0.064,3.666-2.103,5.763-5.405c3.581,1.381,7.153,2.086,9.982,2.002
			c20.66-0.612,39.404-19.974,39.037-32.358C244.416,23.865,240.72,18.353,231.793,18.494z M200.611,49.262
			c2.544-3.591,15.73-21.249,29.319-21.651c3.989-0.12,5.044,2.349,5.123,5.077c0.126,4.245-7.567,16.656-24.887,17.169
			C206.368,49.968,203.169,49.683,200.611,49.262z M189.862,43.403c-0.314-0.52-0.611-1.346-0.649-2.634
			c-0.085-2.836,4.815-13.709,17.141-14.602c-3.14,2.154-6.315,4.913-9.458,8.444C193.939,37.93,191.59,40.853,189.862,43.403z"/>
		<path fill-rule="evenodd" clip-rule="evenodd" d="M256.004,69.323c12.097-0.358,27.249,1.208,27.363,5.077
			c0.068,2.263-1.116,6.987-7.57,7.641c-7.611,0.772-46.011,2.402-45.87,7.143c0.074,2.507,11.612,3.062,22.196,3.702
			c10.872,0.658,28.335,1.067,28.858,18.664c0.412,13.894-4.844,16.83-7.211,17.936c-3.002,1.404-13.096,5.244-20.833,5.473
			c-23.318,0.693-32.933-12.708-33.135-19.519c-0.182-6.047,6.04-11.412,16.503-11.722c10.46-0.311,26.661,3.46,26.788,7.764
			c0.103,3.487-7.042,5.282-10.202,5.375c-14.276,0.423-13.575-5.378-21.803-5.133c-4.685,0.139-11.262,10.095,12.223,9.397
			c20.921-0.621,27.261-7.516,27.152-11.22c-0.147-4.904-15.161-7.294-23.844-7.744c-8.684-0.452-21.717-0.392-26.162-3.205
			c-4.448-2.812-3.822-9.174-2.283-14.435C221.391,73.516,243.91,69.684,256.004,69.323z"/>
		<path fill-rule="evenodd" clip-rule="evenodd" d="M297.312,73.877c8.175-0.244,25.307,36.817,28.194,36.731
			c2.891-0.085,0.74-8.657-1.081-18.125c-4.127-21.415-10.563-32.457-4.515-32.636c4.468-0.134,19.121,14.044,19.937,41.501
			c0.379,12.749-1.416,29.433-12.966,29.775c-10.951,0.326-23.433-34.255-26.265-34.171c-1.525,0.045-1.654,21.425-2.062,27.87
			c-0.409,6.447-2.653,9.894-6.249,10.001c-5.449,0.162-7.837-5.057-8.146-15.353C283.854,109.174,287.233,74.176,297.312,73.877z"
			/>
		<path d="M380.417,93.929c3.869-0.115,7.285-0.762,6.944,4.265c-0.341,5.026-0.555,7.05-4.585,7.17l-20.683,0.614
			c-0.685,2.3-2.453,8.227-3.249,10.728c-0.996,3.139,2.147,2.445,6.201,1.29c4.057-1.157,15.064-3.229,19.584-3.363
			c4.524-0.135,7.902,7.072,5.302,9.548c-2.597,2.476-16.588,14.288-31.19,14.721c-6.266,0.187-14.773-5.286-15.064-15.093
			c-0.152-5.191,1.93-12.159,3.928-17.568c-0.488-0.307-0.858-1.021-1.146-2.581c-0.649-3.525-2.236-7.402,3.634-8.069
			c0.47-0.053,1.06-0.108,1.75-0.164l4.847-9.985c-1.968-0.29-3.667-0.723-4.977-1.349c-3.566-1.702-6.345-6.082-6.401-8.042
			c-0.129-4.305,31.423-6.877,38.726-7.094c7.846-0.233,10.073,1.281,12.579,4.861c2.506,3.578,3.455,6.113,3.481,7.094
			c0.029,0.98-0.878,3.406-10.361,3.687c-4.85,0.144-12.69,0.964-20.213,1.24l-3.275,8.732
			C373.567,94.208,380.417,93.929,380.417,93.929z"/>
		<path fill-rule="evenodd" clip-rule="evenodd" d="M401.797,123.76c-8.472,16.713-14.174,34.421-13.777,47.753
			c0.446,15.021,9.67,20.623,12.473,20.541c2.803-0.085,2.943-4.53,3.446-7.842c2.855-18.757,7.77-35.378,13.377-49.346
			c2.221,0.561,4.424,0.819,6.457,0.758c17.179-0.509,37.089-21.036,36.44-42.888c-0.344-11.539-4.753-19.723-12.15-19.504
			c-10.816,0.322-26.367,16.672-38.854,37.196c-1.114-8.328,5.452-21.151,11.051-30.115c3.934-6.298,3.243-13.783,1.61-13.734
			c-2.288,0.067-24.449,18.828-23.686,44.564C398.333,116.141,399.637,120.337,401.797,123.76z M424.718,118.56
			c10.343-20.225,21.009-31.755,24.76-31.866C455.982,86.5,450.478,115.916,424.718,118.56z"/>
		<path fill-rule="evenodd" clip-rule="evenodd" d="M760.653,111.758c-6.258-7.4-11.609-14.181-14.662-17.809
			c-4.162,5.636-14.405,21.717-19.018,30.642c2.879,0.539,5.752,1.006,8.672,1.303l0.819,5.765h-1.959
			c-1.868,0-11.892-0.463-18.612-0.463c-5.126,0-10.126,0.268-15.266,0.674l1.994-5.977c2.605-0.375,5.452-0.645,7.89-1.57
			c5.006-3.369,25.146-30.06,30.448-36.854c-4.072-5.214-9.551-12.399-14.738-19.083c-5.313-6.794-10.258-13.01-12.91-15.889
			c-2.683-0.823-5.496-1.18-8.219-1.707l-0.855-6.049c6.457,1.079,13.598,0.87,19.999,0.87c7.35,0,14.752-0.271,22.102-0.584
			l-1.722,5.887c-2.878,0.314-5.751,0.673-8.609,1.228c3.234,5.196,11.797,17.832,15.543,22.851
			c3.982-5.405,11.967-16.861,15.442-22.898l-2.068-0.42c-1.742-0.314-3.457-0.582-5.138-0.837l-1.154-5.9
			c6.125,0.51,12.309,0.674,18.509,0.674c4.704,0,9.406-0.271,14.112-0.674l-0.558,5.765c-2.771,0.717-5.541,1.228-8.36,1.918
			l-0.955,0.955c-4.104,3.839-7.819,8.151-11.519,12.329c-5.416,6.138-10.977,12.608-13.506,15.604
			c13.001,17.792,25.729,35.878,39.074,53.354l-9.481,1.871C776.659,129.713,768.185,120.501,760.653,111.758z"/>
		<path fill-rule="evenodd" clip-rule="evenodd" d="M921.181,52.427c-4.09-0.599-8.337-0.901-12.462-1.244l-0.825-5.841l28.397-0.12
			c11.021,0,26.476,0.12,34.848,3.443c6.692,2.654,11.153,7.608,11.153,14.965c0,7.933-8.321,17.506-17.025,22.85
			c8.281,14,24.111,35.942,34.733,47.189l-10.111,1.36c-8.431-3.879-34.34-33.246-41.786-42.245
			c-3.234,0.241-6.557,0.511-8.774,0.586v1.375c0,7.058,0.199,23.152,0.514,29.728c3.986,0.658,8.085,1.047,12.132,1.409l1.137,5.99
			c-7.352-0.597-14.948-0.674-22.301-0.674c-7.608,0-15.499,0-23.077,0.674l1.122-6.018c4.104-0.333,8.301-0.693,12.296-1.47
			c0.356-5.827,0.494-26.012,0.494-37.304v-7.159C921.645,75.965,921.507,57.456,921.181,52.427z M951.311,84.188
			c4.721-1.736,12.252-6.708,12.252-17.265c0-5.96-5.243-14.425-23.735-14.917c-0.3,6.784-0.499,24.847-0.499,32.407v1.871
			C943.047,86.178,947.163,85.715,951.311,84.188z"/>
		<path fill-rule="evenodd" clip-rule="evenodd" d="M867.938,124.5c-3.561-10.38-6.721-21.232-11.128-31.315
			c-5.179,0.109-19.525,0.764-24.739,1.352c-1.346,4.253-6.125,21.262-7.576,29.964c3.161,0.734,6.439,1.018,9.665,1.379
			l1.134,5.944c-6.963-0.422-14.019-0.629-20.951-0.629c-5.229,0-10.472,0.207-15.651,0.674l0.841-5.99
			c3.533-0.361,6.994-0.84,10.466-1.557c4.598-9.063,23.933-61.071,28.098-72.228c-2.891-0.569-5.767-0.866-8.659-1.213
			l-0.238-5.897c5.989,0.404,12.097,0.627,18.136,0.627c7.712,0,15.528-0.088,23.169-0.627l-0.858,5.897
			c-2.755,0.317-5.54,0.644-8.248,1.26c2.082,6.694,7.714,22.867,11.782,33.993c3.193,8.833,10.141,27.732,15.472,38.188
			c3.578,0.699,7.133,1.152,10.723,1.619l0.875,6.09c-7.056-1.18-15.625-0.836-22.634-0.836c-7.294,0-14.778,0.09-22.072,0.674
			l1.404-6.018C860.644,125.519,864.286,125.205,867.938,124.5z M844.939,57.876c-3.39,9.345-8.134,22.24-10.081,27.899l19.769,0.36
			C852.184,78.843,847.542,65.722,844.939,57.876z"/>
		<path fill-rule="evenodd" clip-rule="evenodd" d="M676.052,124.382c4.033,0.718,8.148,1.093,12.158,1.498l1.428,6.019
			c-8.299-0.793-17.119-0.704-25.383-0.704c-6.815,0-13.687,0.207-20.428,0.629l1.137-6.021c4.06-0.208,8.207-0.782,12.224-1.467
			c0.416-6.636,0.537-26.025,0.537-36.661v-6.919c0-3.562-0.121-22.263-0.481-28.33c-4.072-0.617-8.103-1.078-12.147-1.513
			l-1.406-6.053c8.31,0.9,17.343,0.75,25.595,0.75c6.724,0,13.703,0.015,20.416-0.764l-1.49,6.066
			c-4.054,0.435-8.125,1.109-12.173,1.63c-0.297,4.106-0.435,15.965-0.435,28.829v7.232
			C675.603,102.547,675.74,119.62,676.052,124.382z"/>
		<path fill-rule="evenodd" clip-rule="evenodd" d="M591.918,124.323c4.896,0.641,9.841,1.062,14.708,1.557l1.407,5.944
			c-8.134-0.51-16.474-0.629-24.651-0.629c-7.784,0-15.722,0.09-23.494,0.629l1.118-5.931c4.092-0.521,8.196-0.871,12.312-1.527
			c0.376-7.175,0.438-29.498,0.438-39.652v-4.656c0-3.46-0.062-21.867-0.438-27.736c-4.089-0.855-8.34-1.033-12.473-1.407
			l-0.84-5.781l29.146-0.106c12.791,0,23.918,1.019,30.01,3.507c11.245,4.686,12.567,12.577,12.567,16.019
			c0,20.457-20.052,29.788-37.513,32.216l0.729-6.38c10.575-2.637,18.289-8.537,18.289-21.594c0-6.545-3.223-11.759-8.521-14.394
			c-3.134-1.542-8.122-2.247-12.808-2.396c-0.344,5.333-0.432,19.485-0.432,28.378v4.958
			C591.472,94.447,591.56,117.913,591.918,124.323z"/>
		<circle fill-rule="evenodd" clip-rule="evenodd" cx="512.779" cy="91.91" r="8.031"/>
	</g>
</g>
</svg>
